<svg id="Layer_2" data-name="Layer 2" xmlns="http://www.w3.org/2000/svg" viewBox="0 0 317.938 134.5899"><defs><style>.cls-1{fill:#ff4f1f;}.cls-2{fill:#4b4f54;}</style></defs><title>logo</title><path d="M260.96,53.6429h-1.0425v-0.4h2.5372v0.4h-1.0425v2.7607H260.96V53.6429Z"/><path d="M264.2518,56.4036l-0.8854-2.7466v2.7466h-0.4524V53.2429h0.757L264.49,55.87l0.8188-2.6275h0.7568v3.1607h-0.4521V53.657l-0.8854,2.7466h-0.4761Z"/><path class="cls-1" d="M77.7954,45.2083a1.88,1.88,0,1,1,0,3.76q-0.0456,0-.092-0.0021A1.8881,1.8881,0,0,1,75.9177,47.18a1.88,1.88,0,0,1,1.8777-1.9718m0-2.4522a4.3321,4.3321,0,0,0-.2048,8.6594c0.0686,0.0031.137,0.0047,0.2048,0.0047a4.3321,4.3321,0,0,0,0-8.6641h0Z"/><path class="cls-1" d="M74.9108,72.98a4.3649,4.3649,0,1,1,0,8.73h-4.73a4.3649,4.3649,0,1,1,0-8.73h4.73m0-2.8517h-4.73a7.2166,7.2166,0,1,0,0,14.4331h4.73a7.2166,7.2166,0,1,0,0-14.4331h0Z"/><path class="cls-1" d="M74.9108,56.0947a4.3649,4.3649,0,1,1,0,8.73H63.7934a4.3649,4.3649,0,1,1,0-8.73H74.9108m0-2.8517H63.7934a7.2165,7.2165,0,1,0,0,14.4331H74.9108a7.2165,7.2165,0,1,0,0-14.4331h0Z"/><polygon class="cls-2" points="120.767 84.561 120.767 53.243 138.409 53.243 138.409 56.334 123.903 56.334 123.903 67.182 136.923 67.182 136.923 70.23 123.903 70.23 123.903 81.47 138.409 81.47 138.409 84.561 120.767 84.561"/><polygon class="cls-2" points="172.682 84.561 172.682 53.243 190.324 53.243 190.324 56.334 175.818 56.334 175.818 67.182 188.838 67.182 188.838 70.23 175.818 70.23 175.818 81.47 190.324 81.47 190.324 84.561 172.682 84.561"/><polygon class="cls-2" points="225.461 84.561 225.461 71.579 214.882 53.243 218.392 53.243 227.049 68.256 235.665 53.243 239.175 53.243 228.596 71.579 228.596 84.561 225.461 84.561"/><polygon class="cls-2" points="166.264 84.561 166.264 53.243 163.129 53.243 163.129 78.838 147.62 53.243 144.484 53.243 144.484 53.243 144.484 84.561 147.62 84.561 147.619 58.966 163.128 84.561 166.264 84.561"/><path class="cls-2" d="M104.2047,71.1032h7.5041V73.59c0,6.1321-3.8776,8.3169-7.5063,8.3169s-7.5069-2.1849-7.5069-8.3169V64.2166c0-6.1334,3.879-8.3189,7.5091-8.3189a7.1052,7.1052,0,0,1,7.3721,6.42h3.15c-0.7274-5.796-4.7954-9.5117-10.5228-9.5117-6.3659,0-10.6433,4.5756-10.6433,11.3861v9.4218c0,6.81,4.2768,11.3845,10.6418,11.3845s10.6421-4.575,10.6421-11.3845V68.0561h-10.64v3.0471Z"/><path class="cls-2" d="M197.2955,75.0906c0.27,4.1976,3.0579,6.8165,7.0048,6.8165,3.9625,0,6.1447-1.9493,6.1447-5.4891a5.2577,5.2577,0,0,0-4.2741-5.24l-5.2874-1.4417c-3.8895-1.0488-6.2119-4.2026-6.2119-8.4364,0-5.08,3.6234-8.4935,9.017-8.4935,6.1721,0,8.887,4.2952,9.4809,8.5973h-3.1321c-0.7106-3.5982-2.9851-5.5055-6.3488-5.5055-3.5735,0-5.8825,2.12-5.8825,5.4017a5.2237,5.2237,0,0,0,4.0556,5.3705l5.4618,1.4859A8.2186,8.2186,0,0,1,213.58,76.418c0,5.2927-3.5562,8.58-9.28,8.58-7.1194,0-10.0111-5.4294-10.1388-9.9078h3.1341Z"/><path class="cls-2" d="M243.6328,75.0906c0.27,4.1976,3.0579,6.8165,7.0048,6.8165,3.9625,0,6.1447-1.9493,6.1447-5.4891a5.2577,5.2577,0,0,0-4.2741-5.24l-5.2874-1.4417c-3.8895-1.0488-6.2119-4.2026-6.2119-8.4364,0-5.08,3.6234-8.4935,9.017-8.4935,6.1721,0,8.887,4.2952,9.4809,8.5973h-3.1321c-0.7106-3.5982-2.9851-5.5055-6.3488-5.5055-3.5735,0-5.8825,2.12-5.8825,5.4017a5.2237,5.2237,0,0,0,4.0556,5.3705l5.4618,1.4859a8.2186,8.2186,0,0,1,6.2571,8.2621c0,5.2927-3.5562,8.58-9.28,8.58-7.1194,0-10.0111-5.4294-10.1388-9.9078h3.1341Z"/></svg>