<svg id="Layer_1" data-name="Layer 1" xmlns="http://www.w3.org/2000/svg" viewBox="0 0 16 24"><title>logo</title><path d="M12.513,1.6306a1.0342,1.0342,0,0,1,0,2.0685l-0.05-.0012a1.0353,1.0353,0,0,1-.6947-1.7472,1.0194,1.0194,0,0,1,.7451-0.32m0-1.3491a2.3836,2.3836,0,0,0-.1122,4.7641c0.0376,0.0017.075,0.0026,0.1122,0.0026a2.3834,2.3834,0,0,0,0-4.7667h0Z"/><path d="M10.9324,16.91a2.4014,2.4014,0,0,1,0,4.8028H8.3408a2.4014,2.4014,0,0,1,0-4.8028h2.5916m0-1.5689H8.3408a3.97,3.97,0,0,0,0,7.9407h2.5916a3.97,3.97,0,0,0,0-7.9407h0Z"/><path d="M10.9324,7.62a2.4014,2.4014,0,0,1,0,4.8028H4.8408a2.4014,2.4014,0,0,1,0-4.8028h6.0916m0-1.5689H4.8408a3.97,3.97,0,0,0,0,7.9406h6.0916a3.97,3.97,0,0,0,0-7.9406h0Z"/></svg>